<svg width="48" height="48" viewBox="0 0 48 48" fill="none" xmlns="http://www.w3.org/2000/svg">
<path d="M23.5 45C35.3741 45 45 35.3741 45 23.5C45 11.6259 35.3741 2 23.5 2C11.6259 2 2 11.6259 2 23.5C2 35.3741 11.6259 45 23.5 45Z" fill="#00DA5A" stroke="black" stroke-linecap="round" stroke-linejoin="round"/>
<path d="M17.2173 36.3465C16.4286 35.8613 16.1796 34.8292 16.6648 34.041C20.217 28.2619 21.2457 19.4525 19.1708 12.6169C18.903 11.7304 19.4026 10.7941 20.2876 10.525C21.1741 10.258 22.1086 10.7579 22.3782 11.6428C24.7474 19.4509 23.5998 29.1579 19.5215 35.7945C19.0363 36.5827 18.0045 36.8317 17.2173 36.3465ZM23.3132 36.5724C27.4289 29.6431 27.8074 18.2106 25.7994 11.5948C25.4772 10.5324 26.0769 9.40889 27.1393 9.08699C28.2022 8.76509 29.3249 9.36428 29.6479 10.4274C31.9534 18.0219 31.508 30.6469 26.7719 38.6248C26.2048 39.5824 24.9706 39.8956 24.0163 39.3283C23.0607 38.7635 22.7457 37.526 23.3131 36.5735L23.3132 36.5724Z" fill="#00DA5A" stroke="black" stroke-linecap="round" stroke-linejoin="round"/>
</svg>
